<?xml version="1.0" standalone="no"?>
<!DOCTYPE svg PUBLIC "-//W3C//DTD SVG 20010904//EN"
 "http://www.w3.org/TR/2001/REC-SVG-20010904/DTD/svg10.dtd">
<svg version="1.0" xmlns="http://www.w3.org/2000/svg"
 width="195.000000pt" height="120.000000pt" viewBox="0 0 195.000000 120.000000"
 preserveAspectRatio="xMidYMid meet">

<g transform="translate(0.000000,120.000000) scale(0.100000,-0.100000)"
fill="#000000" stroke="none">
<path d="M675 1116 c-38 -17 -90 -72 -104 -109 -19 -49 -13 -146 14 -222 14
-38 25 -71 25 -73 0 -2 -51 0 -112 4 -70 4 -147 2 -201 -5 -92 -12 -217 -47
-217 -59 0 -5 85 -122 189 -262 214 -289 190 -272 316 -227 103 38 235 48 418
34 214 -16 541 -15 592 1 65 21 136 55 133 63 -2 5 -109 114 -238 244 -188
190 -238 235 -255 231 -11 -3 -51 -14 -90 -25 -45 -13 -102 -20 -162 -20 l-92
-1 24 58 c54 134 54 237 -1 310 -50 65 -162 92 -239 58z m163 -37 c128 -63
128 -251 -1 -310 -182 -82 -335 147 -190 284 53 50 122 59 191 26z m632 -592
c235 -238 228 -224 135 -253 -107 -33 -225 -39 -460 -21 -121 10 -259 17 -306
17 -101 0 -238 -22 -306 -49 l-47 -18 -178 236 c-98 130 -178 239 -178 243 0
12 98 37 189 49 118 15 303 3 318 -20 9 -15 0 -16 -127 -13 -126 4 -259 -8
-286 -26 -13 -8 282 -398 299 -396 7 1 52 9 101 18 113 20 257 20 520 0 222
-18 342 -12 417 19 l34 14 -180 184 c-122 125 -186 184 -200 183 -11 -1 -51
-6 -90 -12 -81 -13 -265 -16 -265 -4 0 24 30 32 130 33 69 0 127 7 170 18 36
10 72 18 80 17 8 -1 112 -99 230 -219z m-940 91 c12 -40 23 -78 25 -84 2 -8
-25 -16 -77 -24 -44 -6 -86 -14 -93 -16 -12 -5 -134 140 -139 163 -2 14 95 31
181 32 l82 1 21 -72z m140 39 c8 -12 32 -40 52 -62 l38 -40 34 40 34 40 7 -58
c4 -32 6 -59 4 -60 -2 -1 -61 -1 -131 1 l-128 4 -10 36 c-5 20 -17 59 -25 86
l-15 49 63 -7 c48 -5 65 -12 77 -29z m634 -56 l79 -79 -39 -12 c-21 -6 -79
-13 -129 -16 l-90 -6 -45 78 c-25 43 -46 81 -48 85 -3 6 107 24 168 28 19 1
45 -18 104 -78z m-251 -22 c26 -45 46 -83 44 -85 -3 -4 -230 16 -233 19 -1 1
-5 35 -9 75 l-7 72 79 0 78 0 48 -81z m-305 -104 c12 -19 22 -38 22 -42 0 -8
-253 -74 -282 -73 -9 0 -37 26 -62 57 -42 54 -44 58 -25 65 36 14 142 26 234
27 l90 1 23 -35z m209 15 c67 -5 128 -10 137 -10 14 0 122 -167 113 -176 -2
-3 -53 0 -113 6 -60 5 -136 10 -169 10 l-60 0 -35 57 c-19 32 -45 74 -58 95
l-23 38 43 -5 c24 -3 98 -9 165 -15z m522 -67 c44 -47 78 -90 75 -94 -10 -16
-116 -30 -214 -27 l-104 3 -48 80 c-26 44 -48 83 -48 86 0 3 42 9 93 12 50 3
103 10 117 16 14 5 30 10 37 10 6 1 48 -38 92 -86z m-665 -55 l26 -43 -113 -6
c-61 -4 -132 -12 -156 -19 -35 -9 -46 -9 -57 2 -32 33 -21 40 111 73 72 18
138 33 147 34 10 1 27 -17 42 -41z"/>
<path d="M763 1067 c-4 -6 -6 -20 -5 -30 2 -10 -11 -29 -30 -45 -62 -52 -93
-84 -75 -78 15 5 17 -2 17 -49 l0 -55 35 0 c31 0 35 3 35 28 0 36 13 55 36 50
14 -2 20 -13 22 -41 3 -35 5 -37 38 -37 l34 0 0 55 c0 47 2 54 18 49 9 -3 -11
21 -46 53 -59 55 -73 77 -53 85 5 2 3 9 -4 15 -11 10 -16 10 -22 0z m97 -189
c0 -55 -1 -58 -25 -58 -22 0 -25 4 -25 35 0 24 -6 37 -20 45 -32 17 -60 -4
-60 -45 0 -31 -3 -35 -25 -35 -24 0 -25 3 -25 58 0 56 1 58 46 94 l46 37 44
-36 c43 -36 44 -39 44 -95z"/>
</g>
</svg>
