<?xml version="1.0" standalone="no"?>
<!DOCTYPE svg PUBLIC "-//W3C//DTD SVG 20010904//EN"
 "http://www.w3.org/TR/2001/REC-SVG-20010904/DTD/svg10.dtd">
<svg version="1.0" xmlns="http://www.w3.org/2000/svg"
 width="375.000000pt" height="250.000000pt" viewBox="0 0 375.000000 250.000000"
 preserveAspectRatio="xMidYMid meet">

<g transform="translate(0.000000,250.000000) scale(0.100000,-0.100000)"
fill="#000000" stroke="none">
<path d="M1295 2226 c-104 -33 -196 -112 -238 -204 -19 -41 -22 -64 -21 -172
1 -108 4 -136 28 -210 16 -47 37 -102 47 -122 11 -21 19 -39 19 -40 0 -2 -136
-3 -302 -3 -277 0 -312 -2 -403 -22 -125 -28 -270 -76 -270 -90 0 -6 155 -220
345 -477 246 -332 352 -468 369 -472 14 -4 38 -1 55 6 242 100 336 120 601
127 154 4 260 0 460 -17 505 -41 732 -38 939 14 103 27 250 90 244 106 -1 5
-196 203 -433 440 -472 473 -440 449 -532 409 -26 -11 -84 -29 -128 -40 -90
-21 -326 -40 -396 -32 l-46 5 39 88 c104 237 107 450 7 577 -90 115 -255 170
-384 129z m230 -81 c68 -30 115 -73 151 -137 26 -48 29 -62 29 -148 0 -80 -4
-102 -23 -138 -62 -115 -158 -176 -282 -176 -130 -1 -234 65 -292 184 -32 65
-31 186 1 257 70 157 259 229 416 158z m1159 -1077 l396 -403 -43 -21 c-193
-98 -471 -119 -997 -74 -538 47 -861 24 -1101 -78 l-44 -19 -327 436 c-180
240 -324 439 -320 442 12 11 134 48 210 64 122 25 332 36 498 25 82 -5 160
-10 174 -10 17 0 30 -10 43 -31 10 -18 16 -33 15 -34 -2 -2 -52 2 -113 7 -225
20 -545 -2 -647 -45 l-28 -12 260 -340 c143 -187 269 -348 278 -358 17 -17 22
-17 78 -2 226 59 521 69 991 31 337 -27 528 -32 652 -16 78 10 216 45 241 60
12 7 -15 39 -125 152 -77 79 -226 231 -332 339 l-192 196 -88 -18 c-115 -24
-350 -40 -485 -32 l-107 6 16 27 16 27 201 6 c202 6 294 19 401 57 28 9 57 18
67 19 9 0 181 -167 412 -401z m-1723 220 c50 -167 68 -233 65 -235 -2 -2 -41
-8 -87 -13 -46 -6 -122 -17 -168 -26 -46 -8 -87 -12 -92 -7 -4 4 -58 73 -119
153 l-112 145 29 11 c56 23 201 42 330 43 l132 1 22 -72z m215 56 c24 -3 41
-17 72 -62 22 -31 63 -82 90 -112 l50 -55 27 25 c15 14 45 47 66 73 22 27 39
47 39 45 1 -1 7 -51 13 -110 l13 -107 -235 6 c-130 3 -237 7 -239 8 -3 3 -92
295 -92 302 0 5 145 -5 196 -13z m1209 -140 c106 -112 135 -148 124 -155 -40
-25 -170 -43 -308 -44 l-144 0 -89 150 -89 150 98 7 c54 4 130 14 168 22 39 7
77 14 86 15 8 0 77 -65 154 -145z m-454 -50 c48 -82 83 -151 78 -153 -13 -4
-412 29 -419 35 -5 6 -29 198 -30 243 l0 33 142 -5 141 -4 88 -149z m-552
-195 c23 -39 41 -73 37 -76 -6 -6 -511 -133 -530 -133 -13 0 -181 218 -174
225 7 8 149 34 238 44 41 5 145 9 230 10 l155 1 44 -71z m366 39 l291 -22 93
-159 c51 -87 91 -161 88 -163 -2 -2 -116 5 -253 16 -137 11 -278 21 -314 22
l-65 3 -102 160 c-56 88 -102 163 -103 168 0 4 17 5 38 2 20 -2 168 -14 327
-27z m964 -129 c84 -88 152 -161 150 -163 -8 -7 -106 -35 -159 -46 -72 -15
-311 -25 -380 -16 l-55 7 -92 158 c-51 87 -93 160 -93 163 0 3 69 8 153 11
106 4 173 11 222 25 39 11 77 20 85 21 8 0 84 -71 169 -160z m-1218 -90 c26
-41 48 -77 48 -81 1 -5 -48 -8 -108 -8 -119 0 -311 -22 -405 -46 -32 -8 -59
-14 -60 -12 -1 2 -17 22 -35 46 -19 24 -32 44 -30 46 8 6 524 134 533 132 6
-1 31 -36 57 -77z"/>
<path d="M1394 2125 c-4 -8 -12 -15 -20 -15 -8 0 -14 -4 -14 -10 0 -5 7 -10
15 -10 10 0 15 -10 15 -29 0 -24 -16 -42 -109 -117 -60 -49 -110 -95 -110
-101 -1 -18 14 -16 30 4 12 14 15 3 19 -83 l5 -99 68 -3 67 -3 0 64 c0 67 10
87 46 87 32 0 43 -19 46 -85 l3 -60 68 -3 67 -3 0 101 0 101 22 -15 c25 -18
38 -20 38 -8 0 5 -52 51 -115 102 -97 79 -115 98 -115 122 0 18 5 28 15 28 8
0 15 5 15 10 0 6 -7 10 -15 10 -8 0 -15 7 -15 15 0 8 -5 15 -10 15 -6 0 -13
-7 -16 -15z m94 -176 l72 -61 0 -104 0 -104 -40 0 -40 0 0 45 c0 83 -43 129
-98 103 -34 -17 -52 -52 -52 -105 l0 -43 -40 0 -40 0 0 104 0 103 73 61 c39
33 77 61 82 61 6 0 43 -27 83 -60z"/>
</g>
</svg>
